<svg width="960" height="680" viewBox="0 0 960 680" fill="none" xmlns="http://www.w3.org/2000/svg">
  <rect width="960" height="680" rx="44" fill="#F5EBDD"/>
  <rect x="48" y="48" width="864" height="584" rx="30" fill="#FFF9F0"/>
  <rect x="88" y="96" width="228" height="488" rx="24" fill="#18352E"/>
  <rect x="116" y="134" width="170" height="14" rx="7" fill="#D9B894"/>
  <rect x="116" y="173" width="138" height="12" rx="6" fill="#7D968C"/>
  <rect x="116" y="239" width="172" height="102" rx="18" fill="#274740"/>
  <rect x="136" y="264" width="72" height="10" rx="5" fill="#FFE9D4"/>
  <rect x="136" y="289" width="118" height="42" rx="14" fill="#D97C55"/>
  <rect x="116" y="367" width="172" height="72" rx="18" fill="#23423B"/>
  <rect x="116" y="459" width="172" height="96" rx="18" fill="#23423B"/>
  <rect x="352" y="96" width="520" height="182" rx="26" fill="#ECE2D1"/>
  <path d="M388 236C431 171 464 154 504 154C562 154 569 221 626 221C675 221 701 181 736 149C760 127 792 112 836 112V236H388Z" fill="#D97C55"/>
  <path d="M388 236C432 192 474 180 522 180C570 180 592 212 639 212C706 212 734 134 836 134" stroke="#35564F" stroke-width="12" stroke-linecap="round"/>
  <rect x="352" y="306" width="252" height="278" rx="26" fill="#35564F"/>
  <rect x="384" y="342" width="108" height="10" rx="5" fill="#E8DAC7"/>
  <rect x="384" y="370" width="84" height="54" rx="18" fill="#FFF9F0"/>
  <rect x="502" y="370" width="60" height="54" rx="18" fill="#D9B894"/>
  <rect x="384" y="450" width="178" height="18" rx="9" fill="#4E6F68"/>
  <rect x="384" y="487" width="138" height="18" rx="9" fill="#4E6F68"/>
  <rect x="636" y="306" width="236" height="132" rx="26" fill="#FFF4E6"/>
  <circle cx="688" cy="372" r="34" fill="#35564F"/>
  <path d="M688 338V406" stroke="#FFF8EF" stroke-width="10" stroke-linecap="round"/>
  <path d="M654 372H722" stroke="#FFF8EF" stroke-width="10" stroke-linecap="round"/>
  <rect x="636" y="452" width="236" height="132" rx="26" fill="#E9DDCD"/>
  <path d="M668 534L710 494L744 518L804 456" stroke="#BB6C46" stroke-width="16" stroke-linecap="round" stroke-linejoin="round"/>
</svg>
