<svg width="960" height="680" viewBox="0 0 960 680" fill="none" xmlns="http://www.w3.org/2000/svg">
  <rect width="960" height="680" rx="44" fill="#EEE3D7"/>
  <rect x="48" y="48" width="864" height="584" rx="30" fill="#FFF8F0"/>
  <rect x="88" y="88" width="784" height="504" rx="28" fill="#17352E"/>
  <rect x="126" y="128" width="172" height="14" rx="7" fill="#E8D5BE"/>
  <rect x="714" y="126" width="122" height="18" rx="9" fill="#567970"/>
  <rect x="126" y="182" width="220" height="356" rx="24" fill="#25453E"/>
  <circle cx="236" cy="286" r="84" fill="#315A51"/>
  <path d="M178 336C208 298 246 268 298 236" stroke="#D9B894" stroke-width="14" stroke-linecap="round"/>
  <rect x="378" y="182" width="458" height="158" rx="24" fill="#F3E6D5"/>
  <rect x="412" y="220" width="110" height="16" rx="8" fill="#35564F"/>
  <rect x="412" y="256" width="228" height="18" rx="9" fill="#D5C7B6"/>
  <rect x="412" y="292" width="182" height="18" rx="9" fill="#D5C7B6"/>
  <rect x="412" y="320" width="124" height="18" rx="9" fill="#BB6C46"/>
  <rect x="378" y="370" width="214" height="168" rx="24" fill="#FFF4E7"/>
  <rect x="410" y="404" width="150" height="96" rx="18" fill="#D9B894"/>
  <rect x="622" y="370" width="214" height="168" rx="24" fill="#E8DBCB"/>
  <rect x="654" y="406" width="148" height="18" rx="9" fill="#35564F"/>
  <rect x="654" y="442" width="120" height="18" rx="9" fill="#BB6C46"/>
  <rect x="654" y="478" width="136" height="18" rx="9" fill="#CFC0AE"/>
</svg>
