<svg width="960" height="680" viewBox="0 0 960 680" fill="none" xmlns="http://www.w3.org/2000/svg">
  <rect width="960" height="680" rx="44" fill="#EFE4D8"/>
  <rect x="48" y="48" width="864" height="584" rx="30" fill="#FFF8F0"/>
  <rect x="86" y="88" width="788" height="66" rx="24" fill="#FAEFE1"/>
  <rect x="118" y="114" width="110" height="14" rx="7" fill="#35564F"/>
  <rect x="624" y="112" width="82" height="18" rx="9" fill="#D9B894"/>
  <rect x="722" y="112" width="120" height="18" rx="9" fill="#E2D4C3"/>
  <rect x="86" y="182" width="364" height="398" rx="26" fill="#18352E"/>
  <circle cx="268" cy="312" r="118" fill="#2F574F"/>
  <path d="M202 384C234 336 278 294 342 254" stroke="#D9B894" stroke-width="16" stroke-linecap="round"/>
  <rect x="494" y="182" width="380" height="206" rx="26" fill="#F2E5D3"/>
  <rect x="532" y="224" width="102" height="14" rx="7" fill="#BB6C46"/>
  <rect x="532" y="255" width="224" height="18" rx="9" fill="#D8CABB"/>
  <rect x="532" y="291" width="180" height="18" rx="9" fill="#D8CABB"/>
  <rect x="532" y="330" width="132" height="28" rx="14" fill="#35564F"/>
  <rect x="494" y="414" width="180" height="166" rx="24" fill="#FFF2E2"/>
  <rect x="514" y="436" width="140" height="96" rx="18" fill="#D9B894"/>
  <rect x="694" y="414" width="180" height="166" rx="24" fill="#ECE0CF"/>
  <rect x="714" y="436" width="140" height="18" rx="9" fill="#35564F"/>
  <rect x="714" y="472" width="98" height="18" rx="9" fill="#BB6C46"/>
  <rect x="714" y="510" width="124" height="18" rx="9" fill="#CFC2B0"/>
</svg>
